<svg data-v-423bf9ae="" xmlns="http://www.w3.org/2000/svg" viewBox="0 0 310.0850991948047 60" class="font"><!----><!----><!----><g data-v-423bf9ae="" id="16f67ced-6d87-47ff-8546-3b67feb3eaea" fill="white" transform="matrix(6.382978334854308,0,0,6.382978334854308,-4.978722190576548,-28.978720919910103)"><path d="M0.78 13.78L7.66 13.78L7.66 12.04L3.33 12.04L7.60 5.78L7.60 4.54L1.19 4.54L1.19 6.26L5.07 6.26L0.78 12.53ZM12.63 13.94C14.84 13.94 15.90 12.63 15.90 10.22L15.90 4.54L13.92 4.54L13.92 10.43C13.92 11.55 13.50 12.17 12.63 12.17C11.76 12.17 11.35 11.55 11.35 10.43L11.35 4.54L9.30 4.54L9.30 10.22C9.30 12.63 10.40 13.94 12.63 13.94ZM17.75 13.78L19.84 13.78L19.84 11.28L20.90 9.86L22.83 13.78L25.12 13.78L22.12 8.22L24.85 4.54L22.58 4.54L19.88 8.34L19.84 8.34L19.84 4.54L17.75 4.54ZM25.33 13.78L27.43 13.78L27.99 11.56L30.74 11.56L31.29 13.78L33.47 13.78L30.63 4.54L28.17 4.54ZM28.41 9.95L28.62 9.09C28.84 8.16 29.11 7.08 29.33 6.10L29.39 6.10L30.11 9.09L30.32 9.95ZM36.76 13.78L38.84 13.78L38.84 6.27L41.57 6.27L41.57 4.54L34.03 4.54L34.03 6.27L36.76 6.27ZM43.04 13.78L49.36 13.78L49.36 12.04L47.24 12.04L47.24 6.27L49.36 6.27L49.36 4.54L43.04 4.54L43.04 6.27L45.16 6.27L45.16 12.04L43.04 12.04Z"></path></g><!----><!----></svg>